{"title":"Bob Sinclar Ft. Pitbull - Rock The Boat (h264/mp4)","uid":6993281,"size":103108488,"categoryP":"video","categoryS":"music_videos","magnet":"?xt=urn:btih:eece86c572dea9b08c80d557e661e77796dfe07f&amp;dn=Bob+Sinclar+Ft.+Pitbull+-+Rock+The+Boat+%28h264%2Fmp4%29&amp;tr=udp%3A%2F%2Ftracker.openbittorrent.com%3A80&amp;tr=udp%3A%2F%2Fopen.demonii.com%3A1337&amp;tr=udp%3A%2F%2Ftracker.coppersurfer.tk%3A6969&amp;tr=udp%3A%2F%2Fexodus.desync.com%3A6969","seeders":2,"leechers":1,"uploader":"MusicVideos-HQ","files":1,"time":1327777251,"description":"General\n\nFormat                           : MPEG-4\nFormat profile                   : Base Media\nCodec ID                         : isom\nFile size                        : 98.3 MiB\nDuration                         : 3mn 17s\nOverall bit rate                 : 4 176 Kbps\nEncoded date                     : UTC 2012-01-27 23:14:47\nTagged date                      : UTC 2012-01-27 23:14:47\n\nVideo\nID                               : 1\nFormat                           : AVC\nFormat/Info                      : Advanced Video Codec\nFormat profile                   : &lt;a class=&quot;__cf_email__&quot; href=&quot;/cdn-cgi/l/email-protection&quot; data-cfemail=&quot;337b5a545b737f001d03&quot;&gt;[email&amp;#160;protected]&lt;/a&gt;&lt;script cf-hash='f9e31' type=&quot;text/javascript&quot;&gt;\n/* &lt;![CDATA[ */!function(){try{var t=&quot;currentScript&quot;in document?document.currentScript:function(){for(var t=document.getElementsByTagName(&quot;script&quot;),e=t.length;e--;)if(t[e].getAttribute(&quot;cf-hash&quot;))return t[e]}();if(t&amp;&amp;t.previousSibling){var e,r,n,i,c=t.previousSibling,a=c.getAttribute(&quot;data-cfemail&quot;);if(a){for(e=&quot;&quot;,r=parseInt(a.substr(0,2),16),n=2;a.length-n;n+=2)i=parseInt(a.substr(n,2),16)^r,e+=String.fromCharCode(i);e=document.createTextNode(e),c.parentNode.replaceChild(e,c)}}}catch(u){}}();/* ]]&gt; */&lt;/script&gt;\nFormat settings, CABAC           : Yes\nFormat settings, ReFrames        : 2 frames\nCodec ID                         : avc1\nCodec ID/Info                    : Advanced Video Coding\nDuration                         : 3mn 17s\nBit rate mode                    : Variable\nBit rate                         : 4 184 Kbps\nMaximum bit rate                 : 16.6 Mbps\nWidth                            : 720 pixels\nHeight                           : 480 pixels\nDisplay aspect ratio             : 16:9\nOriginal display aspect ratio    : 16:9\nFrame rate mode                  : Constant\nFrame rate                       : 25.000 fps\nStandard                         : NTSC\nColor space                      : YUV\nChroma subsampling               : 4:2:0\nBit depth                        : 8 bits\nScan type                        : Progressive\nBits/(Pixel*Frame)               : 0.484\nStream size                      : 96.3 MiB (98%)\n\n\nAudio\nID                               : 2\nFormat                           : AAC\nFormat/Info                      : Advanced Audio Codec\nFormat profile                   : LC\nCodec ID                         : 40\nDuration                         : 3mn 17s\nBit rate mode                    : Variable\nBit rate                         : 78.6 Kbps\nMaximum bit rate                 : 89.7 Kbps\nChannel(s)                       : 2 channels\nChannel positions                : Front: L R\nSampling rate                    : 44.1 KHz\nCompression mode                 : Lossy\nStream size                      : 1.85 MiB (2%)\n\n\n","torrent":{"xt":"urn:btih:eece86c572dea9b08c80d557e661e77796dfe07f","amp;dn":"Bob+Sinclar+Ft.+Pitbull+-+Rock+The+Boat+%28h264%2Fmp4%29","amp;tr":["udp%3A%2F%2Ftracker.openbittorrent.com%3A80","udp%3A%2F%2Fopen.demonii.com%3A1337","udp%3A%2F%2Ftracker.coppersurfer.tk%3A6969","udp%3A%2F%2Fexodus.desync.com%3A6969"],"infoHash":"eece86c572dea9b08c80d557e661e77796dfe07f","infoHashBuffer":{"type":"Buffer","data":[238,206,134,197,114,222,169,176,140,128,213,87,230,97,231,119,150,223,224,127]},"announce":[],"urlList":[]}}